<svg width="108" height="61" viewBox="0 0 108 61" fill="none" xmlns="http://www.w3.org/2000/svg">
<path d="M15.3899 52.6C15.3899 53.4 15.2599 54.1325 14.9999 54.7975C14.7399 55.4575 14.3724 56.025 13.8974 56.5C13.4274 56.975 12.8599 57.345 12.1949 57.61C11.5349 57.87 10.7999 58 9.98994 58H5.90994V47.2H9.98994C10.7999 47.2 11.5349 47.3325 12.1949 47.5975C12.8599 47.8575 13.4274 48.225 13.8974 48.7C14.3724 49.175 14.7399 49.745 14.9999 50.41C15.2599 51.07 15.3899 51.8 15.3899 52.6ZM13.5974 52.6C13.5974 51.98 13.5124 51.4225 13.3424 50.9275C13.1774 50.4325 12.9374 50.015 12.6224 49.675C12.3124 49.335 11.9349 49.075 11.4899 48.895C11.0449 48.71 10.5449 48.6175 9.98994 48.6175H7.67244V56.5825H9.98994C10.5449 56.5825 11.0449 56.4925 11.4899 56.3125C11.9349 56.1325 12.3124 55.8725 12.6224 55.5325C12.9374 55.1875 13.1774 54.77 13.3424 54.28C13.5124 53.785 13.5974 53.225 13.5974 52.6ZM20.226 50.23C20.791 50.23 21.301 50.3225 21.756 50.5075C22.216 50.6925 22.606 50.955 22.926 51.295C23.251 51.635 23.501 52.0475 23.676 52.5325C23.851 53.0175 23.9385 53.5625 23.9385 54.1675C23.9385 54.7725 23.851 55.3175 23.676 55.8025C23.501 56.2875 23.251 56.7025 22.926 57.0475C22.606 57.3875 22.216 57.65 21.756 57.835C21.301 58.02 20.791 58.1125 20.226 58.1125C19.656 58.1125 19.141 58.02 18.681 57.835C18.226 57.65 17.836 57.3875 17.511 57.0475C17.186 56.7025 16.936 56.2875 16.761 55.8025C16.586 55.3175 16.4985 54.7725 16.4985 54.1675C16.4985 53.5625 16.586 53.0175 16.761 52.5325C16.936 52.0475 17.186 51.635 17.511 51.295C17.836 50.955 18.226 50.6925 18.681 50.5075C19.141 50.3225 19.656 50.23 20.226 50.23ZM20.226 56.8525C20.916 56.8525 21.4285 56.6225 21.7635 56.1625C22.1035 55.6975 22.2735 55.035 22.2735 54.175C22.2735 53.315 22.1035 52.6525 21.7635 52.1875C21.4285 51.7175 20.916 51.4825 20.226 51.4825C19.526 51.4825 19.006 51.7175 18.666 52.1875C18.326 52.6525 18.156 53.315 18.156 54.175C18.156 55.035 18.326 55.6975 18.666 56.1625C19.006 56.6225 19.526 56.8525 20.226 56.8525ZM36.1182 50.35L33.6657 58H32.3832C32.2332 58 32.1282 57.9025 32.0682 57.7075L30.5457 52.945C30.5057 52.81 30.4682 52.675 30.4332 52.54C30.4032 52.405 30.3757 52.2725 30.3507 52.1425C30.2957 52.4125 30.2282 52.6825 30.1482 52.9525L28.6032 57.7075C28.5482 57.9025 28.4307 58 28.2507 58H27.0282L24.5757 50.35H25.8507C25.9757 50.35 26.0782 50.3825 26.1582 50.4475C26.2432 50.5075 26.2982 50.58 26.3232 50.665L27.5982 55.12C27.6482 55.325 27.6907 55.525 27.7257 55.72C27.7657 55.91 27.8007 56.1 27.8307 56.29C27.8807 56.1 27.9332 55.91 27.9882 55.72C28.0432 55.525 28.1007 55.325 28.1607 55.12L29.5932 50.6425C29.6182 50.5525 29.6682 50.48 29.7432 50.425C29.8232 50.365 29.9182 50.335 30.0282 50.335H30.7332C30.8482 50.335 30.9457 50.365 31.0257 50.425C31.1057 50.48 31.1582 50.5525 31.1832 50.6425L32.5782 55.12C32.6382 55.325 32.6932 55.525 32.7432 55.72C32.7982 55.915 32.8482 56.11 32.8932 56.305C32.9282 56.115 32.9657 55.9225 33.0057 55.7275C33.0457 55.5325 33.0932 55.33 33.1482 55.12L34.4457 50.665C34.4757 50.575 34.5307 50.5 34.6107 50.44C34.6907 50.38 34.7882 50.35 34.9032 50.35H36.1182ZM38.802 51.3625C38.967 51.1925 39.137 51.04 39.312 50.905C39.492 50.765 39.682 50.645 39.882 50.545C40.082 50.445 40.2945 50.3675 40.5195 50.3125C40.7445 50.2575 40.9895 50.23 41.2545 50.23C41.6745 50.23 42.042 50.3 42.357 50.44C42.677 50.58 42.9445 50.7775 43.1595 51.0325C43.3795 51.2875 43.5445 51.595 43.6545 51.955C43.7645 52.31 43.8195 52.7025 43.8195 53.1325V58H42.2145V53.1325C42.2145 52.6175 42.0945 52.2175 41.8545 51.9325C41.6195 51.6475 41.2595 51.505 40.7745 51.505C40.4145 51.505 40.0795 51.5875 39.7695 51.7525C39.4645 51.9175 39.177 52.1425 38.907 52.4275V58H37.2945V50.35H38.2695C38.4895 50.35 38.6295 50.4525 38.6895 50.6575L38.802 51.3625ZM47.3452 46.9V58H45.7327V46.9H47.3452ZM52.643 50.23C53.208 50.23 53.718 50.3225 54.173 50.5075C54.633 50.6925 55.023 50.955 55.343 51.295C55.668 51.635 55.918 52.0475 56.093 52.5325C56.268 53.0175 56.3555 53.5625 56.3555 54.1675C56.3555 54.7725 56.268 55.3175 56.093 55.8025C55.918 56.2875 55.668 56.7025 55.343 57.0475C55.023 57.3875 54.633 57.65 54.173 57.835C53.718 58.02 53.208 58.1125 52.643 58.1125C52.073 58.1125 51.558 58.02 51.098 57.835C50.643 57.65 50.253 57.3875 49.928 57.0475C49.603 56.7025 49.353 56.2875 49.178 55.8025C49.003 55.3175 48.9155 54.7725 48.9155 54.1675C48.9155 53.5625 49.003 53.0175 49.178 52.5325C49.353 52.0475 49.603 51.635 49.928 51.295C50.253 50.955 50.643 50.6925 51.098 50.5075C51.558 50.3225 52.073 50.23 52.643 50.23ZM52.643 56.8525C53.333 56.8525 53.8455 56.6225 54.1805 56.1625C54.5205 55.6975 54.6905 55.035 54.6905 54.175C54.6905 53.315 54.5205 52.6525 54.1805 52.1875C53.8455 51.7175 53.333 51.4825 52.643 51.4825C51.943 51.4825 51.423 51.7175 51.083 52.1875C50.743 52.6525 50.573 53.315 50.573 54.175C50.573 55.035 50.743 55.6975 51.083 56.1625C51.423 56.6225 51.943 56.8525 52.643 56.8525ZM61.9924 54.655C61.4174 54.675 60.9324 54.7225 60.5374 54.7975C60.1424 54.8675 59.8224 54.96 59.5774 55.075C59.3324 55.185 59.1549 55.3175 59.0449 55.4725C58.9399 55.6275 58.8874 55.7975 58.8874 55.9825C58.8874 56.1625 58.9149 56.3175 58.9699 56.4475C59.0299 56.5725 59.1099 56.6775 59.2099 56.7625C59.3149 56.8425 59.4349 56.9025 59.5699 56.9425C59.7099 56.9775 59.8624 56.995 60.0274 56.995C60.4474 56.995 60.8074 56.9175 61.1074 56.7625C61.4124 56.6025 61.7074 56.3725 61.9924 56.0725V54.655ZM57.7174 51.415C58.5824 50.61 59.6124 50.2075 60.8074 50.2075C61.2474 50.2075 61.6374 50.28 61.9774 50.425C62.3224 50.565 62.6099 50.765 62.8399 51.025C63.0749 51.285 63.2524 51.595 63.3724 51.955C63.4974 52.31 63.5599 52.705 63.5599 53.14V58H62.8399C62.6849 58 62.5674 57.9775 62.4874 57.9325C62.4074 57.8825 62.3399 57.785 62.2849 57.64L62.1274 57.0175C61.9324 57.1925 61.7399 57.35 61.5499 57.49C61.3599 57.625 61.1624 57.74 60.9574 57.835C60.7574 57.93 60.5399 58 60.3049 58.045C60.0749 58.095 59.8199 58.12 59.5399 58.12C59.2299 58.12 58.9399 58.0775 58.6699 57.9925C58.4049 57.9075 58.1749 57.78 57.9799 57.61C57.7849 57.435 57.6299 57.22 57.5149 56.965C57.4049 56.71 57.3499 56.41 57.3499 56.065C57.3499 55.77 57.4274 55.4825 57.5824 55.2025C57.7424 54.9225 58.0024 54.6725 58.3624 54.4525C58.7274 54.2275 59.2049 54.0425 59.7949 53.8975C60.3899 53.7525 61.1224 53.67 61.9924 53.65V53.14C61.9924 52.59 61.8749 52.18 61.6399 51.91C61.4049 51.64 61.0599 51.505 60.6049 51.505C60.2949 51.505 60.0349 51.545 59.8249 51.625C59.6149 51.7 59.4324 51.7825 59.2774 51.8725C59.1224 51.9625 58.9849 52.0475 58.8649 52.1275C58.7449 52.2025 58.6174 52.24 58.4824 52.24C58.3724 52.24 58.2774 52.2125 58.1974 52.1575C58.1224 52.0975 58.0599 52.025 58.0099 51.94L57.7174 51.415ZM70.3313 52.2325C70.1063 51.9425 69.8588 51.74 69.5888 51.625C69.3188 51.51 69.0263 51.4525 68.7113 51.4525C68.0813 51.4525 67.5888 51.685 67.2338 52.15C66.8788 52.61 66.7013 53.2925 66.7013 54.1975C66.7013 54.6675 66.7413 55.07 66.8213 55.405C66.9013 55.735 67.0163 56.005 67.1663 56.215C67.3163 56.425 67.4988 56.5775 67.7138 56.6725C67.9288 56.7675 68.1713 56.815 68.4413 56.815C68.8513 56.815 69.2038 56.7275 69.4988 56.5525C69.7988 56.3725 70.0763 56.12 70.3313 55.795V52.2325ZM71.9438 46.9V58H70.9688C70.7538 58 70.6163 57.8975 70.5563 57.6925L70.4138 56.86C70.0938 57.235 69.7288 57.5375 69.3188 57.7675C68.9138 57.9975 68.4413 58.1125 67.9013 58.1125C67.4713 58.1125 67.0813 58.0275 66.7313 57.8575C66.3813 57.6825 66.0813 57.43 65.8313 57.1C65.5813 56.77 65.3863 56.3625 65.2463 55.8775C65.1113 55.3875 65.0438 54.8275 65.0438 54.1975C65.0438 53.6275 65.1188 53.1 65.2688 52.615C65.4238 52.13 65.6438 51.71 65.9288 51.355C66.2138 50.995 66.5588 50.715 66.9638 50.515C67.3738 50.31 67.8313 50.2075 68.3363 50.2075C68.7863 50.2075 69.1688 50.28 69.4838 50.425C69.7988 50.565 70.0813 50.7625 70.3313 51.0175V46.9H71.9438ZM83.1679 53.95L81.6829 50.005C81.5629 49.7 81.4404 49.3125 81.3154 48.8425C81.2604 49.0775 81.2004 49.295 81.1354 49.495C81.0704 49.69 81.0104 49.8625 80.9554 50.0125L79.4704 53.95H83.1679ZM86.4904 58H85.1329C84.9779 58 84.8529 57.9625 84.7579 57.8875C84.6629 57.8075 84.5904 57.71 84.5404 57.595L83.6404 55.21H78.9904L78.0904 57.595C78.0504 57.695 77.9804 57.7875 77.8804 57.8725C77.7804 57.9575 77.6554 58 77.5054 58H76.1479L80.4304 47.2H82.2079L86.4904 58ZM89.034 56.08C89.259 56.37 89.504 56.575 89.769 56.695C90.039 56.81 90.3365 56.8675 90.6615 56.8675C91.2915 56.8675 91.7815 56.6375 92.1315 56.1775C92.4865 55.7175 92.664 55.0325 92.664 54.1225C92.664 53.6525 92.624 53.2525 92.544 52.9225C92.464 52.5875 92.349 52.315 92.199 52.105C92.049 51.895 91.8665 51.7425 91.6515 51.6475C91.4365 51.5525 91.194 51.505 90.924 51.505C90.514 51.505 90.159 51.595 89.859 51.775C89.564 51.95 89.289 52.2025 89.034 52.5325V56.08ZM88.9515 51.46C89.2715 51.085 89.634 50.7825 90.039 50.5525C90.449 50.3225 90.924 50.2075 91.464 50.2075C91.894 50.2075 92.284 50.295 92.634 50.47C92.984 50.64 93.284 50.89 93.534 51.22C93.784 51.55 93.9765 51.96 94.1115 52.45C94.2515 52.935 94.3215 53.4925 94.3215 54.1225C94.3215 54.6875 94.244 55.215 94.089 55.705C93.939 56.19 93.7215 56.6125 93.4365 56.9725C93.1515 57.3275 92.8065 57.6075 92.4015 57.8125C91.9965 58.0125 91.539 58.1125 91.029 58.1125C90.579 58.1125 90.1965 58.04 89.8815 57.895C89.5715 57.75 89.289 57.55 89.034 57.295V60.5425H87.4215V50.35H88.3965C88.6165 50.35 88.7565 50.4525 88.8165 50.6575L88.9515 51.46ZM97.5008 56.08C97.7258 56.37 97.9708 56.575 98.2358 56.695C98.5058 56.81 98.8033 56.8675 99.1283 56.8675C99.7583 56.8675 100.248 56.6375 100.598 56.1775C100.953 55.7175 101.131 55.0325 101.131 54.1225C101.131 53.6525 101.091 53.2525 101.011 52.9225C100.931 52.5875 100.816 52.315 100.666 52.105C100.516 51.895 100.333 51.7425 100.118 51.6475C99.9033 51.5525 99.6608 51.505 99.3908 51.505C98.9808 51.505 98.6258 51.595 98.3258 51.775C98.0308 51.95 97.7558 52.2025 97.5008 52.5325V56.08ZM97.4183 51.46C97.7383 51.085 98.1008 50.7825 98.5058 50.5525C98.9158 50.3225 99.3908 50.2075 99.9308 50.2075C100.361 50.2075 100.751 50.295 101.101 50.47C101.451 50.64 101.751 50.89 102.001 51.22C102.251 51.55 102.443 51.96 102.578 52.45C102.718 52.935 102.788 53.4925 102.788 54.1225C102.788 54.6875 102.711 55.215 102.556 55.705C102.406 56.19 102.188 56.6125 101.903 56.9725C101.618 57.3275 101.273 57.6075 100.868 57.8125C100.463 58.0125 100.006 58.1125 99.4958 58.1125C99.0458 58.1125 98.6633 58.04 98.3483 57.895C98.0383 57.75 97.7558 57.55 97.5008 57.295V60.5425H95.8883V50.35H96.8633C97.0833 50.35 97.2233 50.4525 97.2833 50.6575L97.4183 51.46Z" fill="black"/>
<ellipse cx="55.1388" cy="22.0725" rx="22.0099" ry="22.01" fill="#E6F5E0"/>
<rect x="45.4531" y="4.46436" width="20.1234" height="35.216" fill="black"/>
<rect x="47.2148" y="5.34497" width="16.7275" height="30.814" fill="white"/>
<ellipse cx="56.0186" cy="37.9197" rx="1.76079" ry="1.7608" fill="white"/>
<path d="M54.4296 32.464C54.8201 32.8545 55.4533 32.8545 55.8438 32.464L62.2078 26.1001C62.5983 25.7095 62.5983 25.0764 62.2078 24.6858C61.8173 24.2953 61.1841 24.2953 60.7936 24.6858L55.1367 30.3427L49.4799 24.6858C49.0893 24.2953 48.4562 24.2953 48.0657 24.6858C47.6751 25.0764 47.6751 25.7095 48.0657 26.1001L54.4296 32.464ZM55.1367 7.10571H54.1367V31.7569H55.1367H56.1367V7.10571H55.1367Z" fill="black"/>
</svg>
