<svg width="63" height="79" viewBox="0 0 63 79" fill="none" xmlns="http://www.w3.org/2000/svg">
<path d="M55.4733 58.7438C57.9427 60.497 59.2427 62.4859 59.2427 64.5103C59.2427 66.5348 57.9427 68.5236 55.4733 70.2769C53.004 72.0301 49.4523 73.4861 45.1753 74.4983C40.8983 75.5105 36.0466 76.0434 31.1079 76.0434C26.1692 76.0434 21.3176 75.5105 17.0405 74.4983C12.7635 73.4861 9.21183 72.0301 6.74249 70.2769C4.27315 68.5236 2.97315 66.5348 2.97314 64.5103C2.97314 62.4859 4.27315 60.497 6.74249 58.7438" stroke="#216900" stroke-width="5.71725" stroke-linecap="round"/>
<path d="M55.9317 31.8328C55.9317 52.3958 35.2908 65.8245 31.6517 68.0323C31.3101 68.2395 30.9037 68.2395 30.5622 68.0323C26.923 65.8245 6.2821 52.3958 6.2821 31.8328C6.2821 14.5331 18.3106 3 31.1069 3C44.3468 3 55.9317 14.5331 55.9317 31.8328Z" stroke="#216900" stroke-width="5.71725"/>
<path d="M31.1084 19.3139C36.4552 19.3141 41.4893 24.5031 41.4893 31.8334C41.489 39.1635 36.455 44.3518 31.1084 44.352C25.7616 44.352 20.7268 39.1636 20.7266 31.8334C20.7266 24.503 25.7615 19.3139 31.1084 19.3139Z" stroke="#216900" stroke-width="5.71725"/>
</svg>
