<svg width="82" height="83" viewBox="0 0 82 83" fill="none" xmlns="http://www.w3.org/2000/svg">
<g filter="url(#filter0_d_1_665)">
<path d="M49.75 15.0364H32.25M76 20.2864V55.2864C76 69.2864 71.625 72.7864 54.125 72.7864H27.875C10.375 72.7864 6 69.2864 6 55.2864V20.2864C6 6.28638 10.375 2.78638 27.875 2.78638H54.125C71.625 2.78638 76 6.28638 76 20.2864Z" stroke="#585858" stroke-width="4" stroke-linecap="round" stroke-linejoin="round" shape-rendering="crispEdges"/>
</g>
<g filter="url(#filter1_d_1_665)">
<path d="M40.9991 62.6364C42.7976 62.6364 44.5224 62.0648 45.7942 61.0474C47.0659 60.03 47.7803 58.6502 47.7803 57.2114C47.7803 55.7726 47.0659 54.3927 45.7942 53.3753C44.5224 52.3579 42.7976 51.7864 40.9991 51.7864C39.2006 51.7864 37.4757 52.3579 36.204 53.3753C34.9323 54.3927 34.2178 55.7726 34.2178 57.2114C34.2178 58.6502 34.9323 60.03 36.204 61.0474C37.4757 62.0648 39.2006 62.6364 40.9991 62.6364Z" stroke="#585858" stroke-width="4" stroke-linecap="round" stroke-linejoin="round" shape-rendering="crispEdges"/>
</g>
<defs>
<filter id="filter0_d_1_665" x="0" y="0.786377" width="82" height="82" filterUnits="userSpaceOnUse" color-interpolation-filters="sRGB">
<feFlood flood-opacity="0" result="BackgroundImageFix"/>
<feColorMatrix in="SourceAlpha" type="matrix" values="0 0 0 0 0 0 0 0 0 0 0 0 0 0 0 0 0 0 127 0" result="hardAlpha"/>
<feOffset dy="4"/>
<feGaussianBlur stdDeviation="2"/>
<feComposite in2="hardAlpha" operator="out"/>
<feColorMatrix type="matrix" values="0 0 0 0 0 0 0 0 0 0 0 0 0 0 0 0 0 0 0.25 0"/>
<feBlend mode="normal" in2="BackgroundImageFix" result="effect1_dropShadow_1_665"/>
<feBlend mode="normal" in="SourceGraphic" in2="effect1_dropShadow_1_665" result="shape"/>
</filter>
<filter id="filter1_d_1_665" x="28.2178" y="49.7864" width="25.5625" height="22.85" filterUnits="userSpaceOnUse" color-interpolation-filters="sRGB">
<feFlood flood-opacity="0" result="BackgroundImageFix"/>
<feColorMatrix in="SourceAlpha" type="matrix" values="0 0 0 0 0 0 0 0 0 0 0 0 0 0 0 0 0 0 127 0" result="hardAlpha"/>
<feOffset dy="4"/>
<feGaussianBlur stdDeviation="2"/>
<feComposite in2="hardAlpha" operator="out"/>
<feColorMatrix type="matrix" values="0 0 0 0 0 0 0 0 0 0 0 0 0 0 0 0 0 0 0.25 0"/>
<feBlend mode="normal" in2="BackgroundImageFix" result="effect1_dropShadow_1_665"/>
<feBlend mode="normal" in="SourceGraphic" in2="effect1_dropShadow_1_665" result="shape"/>
</filter>
</defs>
</svg>
