<svg width="70" height="71" viewBox="0 0 70 71" fill="none" xmlns="http://www.w3.org/2000/svg">
<mask id="mask0_1_672" style="mask-type:alpha" maskUnits="userSpaceOnUse" x="0" y="0" width="70" height="71">
<rect y="0.286377" width="70" height="70" fill="#D9D9D9"/>
</mask>
<g mask="url(#mask0_1_672)">
<g filter="url(#filter0_d_1_672)">
<mask id="path-2-inside-1_1_672" fill="white">
<path d="M33.3517 61.4358H36.369V56.8094C39.118 56.6753 41.8503 55.7198 44.5658 53.943C47.2813 52.1662 48.6391 49.3668 48.6391 45.545C48.6391 42.7289 47.7675 40.3822 46.0242 38.5048C44.2809 36.6274 40.9954 34.817 36.1678 33.0737C31.6084 31.4645 28.7588 30.09 27.619 28.9502C26.4791 27.8103 25.9092 26.1676 25.9092 24.022C25.9092 21.8764 26.7641 20.0661 28.4739 18.591C30.1836 17.1159 32.413 16.3783 35.1621 16.3783C37.1736 16.3783 38.8834 16.8309 40.2914 17.7361C41.6994 18.6413 42.8728 19.7979 43.8115 21.2059L46.4265 20.2002C45.4207 18.3898 44.0294 16.898 42.2526 15.7246C40.4758 14.5512 38.5816 13.8975 36.5701 13.7634V9.13695H33.5529V13.7634C29.9993 14.2998 27.334 15.557 25.5572 17.5349C23.7804 19.5129 22.892 21.6753 22.892 24.022C22.892 26.8381 23.7971 29.0843 25.6075 30.7605C27.4178 32.4368 30.5357 34.0795 34.9609 35.6887C39.3192 37.2979 42.2191 38.7562 43.6607 40.0637C45.1022 41.3712 45.823 43.1983 45.823 45.545C45.823 48.5622 44.7167 50.7246 42.504 52.0321C40.2914 53.3395 37.9782 53.9933 35.5644 53.9933C33.2176 53.9933 31.0888 53.3228 29.1779 51.9818C27.267 50.6408 25.7081 48.7634 24.5012 46.3496L21.8862 47.5565C23.0931 50.1714 24.652 52.1829 26.563 53.591C28.4739 54.999 30.7368 56.0048 33.3517 56.6082V61.4358ZM34.9609 70.2864C30.1334 70.2864 25.5907 69.3644 21.3331 67.5206C17.0754 65.6767 13.3709 63.1791 10.2196 60.0278C7.06822 56.8764 4.57061 53.1719 2.72674 48.9143C0.882872 44.6566 -0.0390625 40.114 -0.0390625 35.2864C-0.0390625 30.4588 0.882872 25.9162 2.72674 21.6585C4.57061 17.4008 7.06822 13.6963 10.2196 10.545C13.3709 7.39366 17.0754 4.89605 21.3331 3.05218C25.5907 1.20831 30.1334 0.286377 34.9609 0.286377C39.7885 0.286377 44.3312 1.20831 48.5888 3.05218C52.8465 4.89605 56.551 7.39366 59.7023 10.545C62.8537 13.6963 65.3513 17.4008 67.1951 21.6585C69.039 25.9162 69.9609 30.4588 69.9609 35.2864C69.9609 40.114 69.039 44.6566 67.1951 48.9143C65.3513 53.1719 62.8537 56.8764 59.7023 60.0278C56.551 63.1791 52.8465 65.6767 48.5888 67.5206C44.3312 69.3644 39.7885 70.2864 34.9609 70.2864ZM34.9609 67.4703C43.9456 67.4703 51.5558 64.3525 57.7914 58.1168C64.027 51.8812 67.1449 44.2711 67.1449 35.2864C67.1449 26.3017 64.027 18.6916 57.7914 12.4559C51.5558 6.22029 43.9456 3.10247 34.9609 3.10247C25.9763 3.10247 18.3661 6.22029 12.1305 12.4559C5.89485 18.6916 2.77703 26.3017 2.77703 35.2864C2.77703 44.2711 5.89485 51.8812 12.1305 58.1168C18.3661 64.3525 25.9763 67.4703 34.9609 67.4703Z"/>
</mask>
<path d="M33.3517 61.4358H36.369V56.8094C39.118 56.6753 41.8503 55.7198 44.5658 53.943C47.2813 52.1662 48.6391 49.3668 48.6391 45.545C48.6391 42.7289 47.7675 40.3822 46.0242 38.5048C44.2809 36.6274 40.9954 34.817 36.1678 33.0737C31.6084 31.4645 28.7588 30.09 27.619 28.9502C26.4791 27.8103 25.9092 26.1676 25.9092 24.022C25.9092 21.8764 26.7641 20.0661 28.4739 18.591C30.1836 17.1159 32.413 16.3783 35.1621 16.3783C37.1736 16.3783 38.8834 16.8309 40.2914 17.7361C41.6994 18.6413 42.8728 19.7979 43.8115 21.2059L46.4265 20.2002C45.4207 18.3898 44.0294 16.898 42.2526 15.7246C40.4758 14.5512 38.5816 13.8975 36.5701 13.7634V9.13695H33.5529V13.7634C29.9993 14.2998 27.334 15.557 25.5572 17.5349C23.7804 19.5129 22.892 21.6753 22.892 24.022C22.892 26.8381 23.7971 29.0843 25.6075 30.7605C27.4178 32.4368 30.5357 34.0795 34.9609 35.6887C39.3192 37.2979 42.2191 38.7562 43.6607 40.0637C45.1022 41.3712 45.823 43.1983 45.823 45.545C45.823 48.5622 44.7167 50.7246 42.504 52.0321C40.2914 53.3395 37.9782 53.9933 35.5644 53.9933C33.2176 53.9933 31.0888 53.3228 29.1779 51.9818C27.267 50.6408 25.7081 48.7634 24.5012 46.3496L21.8862 47.5565C23.0931 50.1714 24.652 52.1829 26.563 53.591C28.4739 54.999 30.7368 56.0048 33.3517 56.6082V61.4358ZM34.9609 70.2864C30.1334 70.2864 25.5907 69.3644 21.3331 67.5206C17.0754 65.6767 13.3709 63.1791 10.2196 60.0278C7.06822 56.8764 4.57061 53.1719 2.72674 48.9143C0.882872 44.6566 -0.0390625 40.114 -0.0390625 35.2864C-0.0390625 30.4588 0.882872 25.9162 2.72674 21.6585C4.57061 17.4008 7.06822 13.6963 10.2196 10.545C13.3709 7.39366 17.0754 4.89605 21.3331 3.05218C25.5907 1.20831 30.1334 0.286377 34.9609 0.286377C39.7885 0.286377 44.3312 1.20831 48.5888 3.05218C52.8465 4.89605 56.551 7.39366 59.7023 10.545C62.8537 13.6963 65.3513 17.4008 67.1951 21.6585C69.039 25.9162 69.9609 30.4588 69.9609 35.2864C69.9609 40.114 69.039 44.6566 67.1951 48.9143C65.3513 53.1719 62.8537 56.8764 59.7023 60.0278C56.551 63.1791 52.8465 65.6767 48.5888 67.5206C44.3312 69.3644 39.7885 70.2864 34.9609 70.2864ZM34.9609 67.4703C43.9456 67.4703 51.5558 64.3525 57.7914 58.1168C64.027 51.8812 67.1449 44.2711 67.1449 35.2864C67.1449 26.3017 64.027 18.6916 57.7914 12.4559C51.5558 6.22029 43.9456 3.10247 34.9609 3.10247C25.9763 3.10247 18.3661 6.22029 12.1305 12.4559C5.89485 18.6916 2.77703 26.3017 2.77703 35.2864C2.77703 44.2711 5.89485 51.8812 12.1305 58.1168C18.3661 64.3525 25.9763 67.4703 34.9609 67.4703Z" fill="#585858"/>
<path d="M33.3517 61.4358H23.3517V71.4358H33.3517V61.4358ZM36.369 61.4358V71.4358H46.369V61.4358H36.369ZM36.369 56.8094L35.8818 46.8212L26.369 47.2853V56.8094H36.369ZM36.1678 33.0737L39.5643 23.6682L39.5302 23.6559L39.496 23.6438L36.1678 33.0737ZM43.8115 21.2059L35.491 26.7529L39.9308 33.4126L47.4013 30.5394L43.8115 21.2059ZM46.4265 20.2002L50.0162 29.5336L60.7564 25.4028L55.168 15.3437L46.4265 20.2002ZM36.5701 13.7634H26.5701V23.1189L35.9049 23.7412L36.5701 13.7634ZM36.5701 9.13695H46.5701V-0.863048H36.5701V9.13695ZM33.5529 9.13695V-0.863048H23.5529V9.13695H33.5529ZM33.5529 13.7634L35.0454 23.6514L43.5529 22.3672V13.7634H33.5529ZM34.9609 35.6887L38.4247 26.3077L38.4015 26.2992L38.3784 26.2907L34.9609 35.6887ZM24.5012 46.3496L33.4454 41.8775L29.1109 33.2083L20.3106 37.27L24.5012 46.3496ZM21.8862 47.5565L17.6956 38.4769L8.61605 42.6675L12.8066 51.7471L21.8862 47.5565ZM33.3517 56.6082H43.3517V48.6531L35.6003 46.8643L33.3517 56.6082ZM33.3517 61.4358V71.4358H36.369V61.4358V51.4358H33.3517V61.4358ZM36.369 61.4358H46.369V56.8094H36.369H26.369V61.4358H36.369ZM36.369 56.8094L36.8562 66.7975C41.6779 66.5623 46.1054 64.8861 50.0411 62.3109L44.5658 53.943L39.0905 45.5751C37.5952 46.5535 36.5581 46.7883 35.8818 46.8212L36.369 56.8094ZM44.5658 53.943L50.0411 62.3109C56.1163 58.3358 58.6391 52.0454 58.6391 45.545H48.6391H38.6391C38.6391 46.2827 38.5091 46.3823 38.6233 46.1468C38.6792 46.0315 38.7658 45.8963 38.8783 45.7699C38.989 45.6456 39.0755 45.5849 39.0905 45.5751L44.5658 53.943ZM48.6391 45.545H58.6391C58.6391 40.4768 56.9895 35.6174 53.3521 31.7003L46.0242 38.5048L38.6962 45.3093C38.7053 45.3191 38.69 45.3038 38.6655 45.2644C38.6408 45.2244 38.6222 45.1845 38.6111 45.1547C38.6005 45.1261 38.6061 45.1318 38.6152 45.1857C38.6246 45.2414 38.6391 45.3572 38.6391 45.545H48.6391ZM46.0242 38.5048L53.3521 31.7003C49.8961 27.9784 44.6749 25.5137 39.5643 23.6682L36.1678 33.0737L32.7714 42.4793C34.8584 43.2329 36.3749 43.9179 37.4266 44.4974C38.5283 45.1045 38.8011 45.4223 38.6962 45.3093L46.0242 38.5048ZM36.1678 33.0737L39.496 23.6438C37.4025 22.9049 35.9256 22.2969 34.9556 21.829C34.4759 21.5976 34.2201 21.4482 34.1264 21.3891C33.9961 21.307 34.268 21.457 34.6901 21.8791L27.619 28.9502L20.5479 36.0212C22.3523 37.8256 24.6097 39.0437 26.2666 39.8429C28.1462 40.7495 30.3738 41.6334 32.8396 42.5036L36.1678 33.0737ZM27.619 28.9502L34.6901 21.8791C35.2712 22.4603 35.6135 23.0935 35.7842 23.5855C35.9391 24.0319 35.9092 24.2302 35.9092 24.022H25.9092H15.9092C15.9092 27.9122 16.976 32.4493 20.5479 36.0212L27.619 28.9502ZM25.9092 24.022H35.9092C35.9092 24.3179 35.8404 24.8009 35.5929 25.3251C35.3516 25.8361 35.0741 26.104 35.0062 26.1625L28.4739 18.591L21.9415 11.0194C18.1616 14.2805 15.9092 18.799 15.9092 24.022H25.9092ZM28.4739 18.591L35.0062 26.1625C34.9281 26.2299 34.8402 26.2915 34.751 26.3417C34.6625 26.3914 34.5968 26.4163 34.5691 26.4254C34.5145 26.4435 34.677 26.3783 35.1621 26.3783V16.3783V6.37833C30.5583 6.37833 25.8402 7.65588 21.9415 11.0194L28.4739 18.591ZM35.1621 16.3783V26.3783C35.4201 26.3783 35.4794 26.4074 35.3941 26.3848C35.3513 26.3735 35.2792 26.3509 35.1861 26.3104C35.0925 26.2696 34.9895 26.2158 34.8838 26.1479L40.2914 17.7361L45.699 9.32431C42.378 7.18938 38.7002 6.37833 35.1621 6.37833V16.3783ZM40.2914 17.7361L34.8838 26.1479C35.1211 26.3004 35.3072 26.4772 35.491 26.7529L43.8115 21.2059L52.132 15.6589C50.4385 13.1186 48.2778 10.9821 45.699 9.32431L40.2914 17.7361ZM43.8115 21.2059L47.4013 30.5394L50.0162 29.5336L46.4265 20.2002L42.8367 10.8667L40.2217 11.8725L43.8115 21.2059ZM46.4265 20.2002L55.168 15.3437C53.3589 12.0873 50.8426 9.4135 47.7632 7.37995L42.2526 15.7246L36.742 24.0692C37.2163 24.3824 37.4825 24.6924 37.6849 25.0566L46.4265 20.2002ZM42.2526 15.7246L47.7632 7.37995C44.6244 5.30717 41.0743 4.04147 37.2353 3.78554L36.5701 13.7634L35.9049 23.7412C36.0889 23.7535 36.3271 23.7953 36.742 24.0692L42.2526 15.7246ZM36.5701 13.7634H46.5701V9.13695H36.5701H26.5701V13.7634H36.5701ZM36.5701 9.13695V-0.863048H33.5529V9.13695V19.137H36.5701V9.13695ZM33.5529 9.13695H23.5529V13.7634H33.5529H43.5529V9.13695H33.5529ZM33.5529 13.7634L32.0604 3.8754C27.0194 4.6363 21.9146 6.62584 18.118 10.8523L25.5572 17.5349L32.9964 24.2176C32.7534 24.4881 32.9791 23.9633 35.0454 23.6514L33.5529 13.7634ZM25.5572 17.5349L18.118 10.8523C14.9275 14.404 12.892 18.8777 12.892 24.022H22.892H32.892C32.892 24.0705 32.887 24.1431 32.8699 24.2296C32.8529 24.3162 32.8292 24.3889 32.808 24.4405C32.7874 24.4907 32.778 24.4994 32.7996 24.4657C32.8222 24.4307 32.8806 24.3466 32.9964 24.2176L25.5572 17.5349ZM22.892 24.022H12.892C12.892 29.1903 14.6613 34.2536 18.8134 38.0981L25.6075 30.7605L32.4016 23.4229C32.4651 23.4817 32.5522 23.5756 32.6414 23.7044C32.7309 23.8337 32.7991 23.9645 32.846 24.0809C32.9435 24.3229 32.892 24.355 32.892 24.022H22.892ZM25.6075 30.7605L18.8134 38.0981C22.1307 41.1697 26.7962 43.3603 31.5435 45.0866L34.9609 35.6887L38.3784 26.2907C34.2751 24.7986 32.7049 23.7038 32.4016 23.4229L25.6075 30.7605ZM34.9609 35.6887L31.4972 45.0696C33.4611 45.7948 34.9045 46.4167 35.9118 46.9232C37.0152 47.4782 37.1882 47.6937 36.9425 47.4709L43.6607 40.0637L50.3788 32.6565C47.3554 29.9143 42.7696 27.912 38.4247 26.3077L34.9609 35.6887ZM43.6607 40.0637L36.9425 47.4709C36.5157 47.0837 36.1775 46.5847 35.9801 46.0843C35.7992 45.6258 35.823 45.3887 35.823 45.545H45.823H55.823C55.823 41.0072 54.3357 36.2453 50.3788 32.6565L43.6607 40.0637ZM45.823 45.545H35.823C35.823 45.846 35.7688 45.5042 36.0908 44.8749C36.2505 44.5629 36.4667 44.2539 36.7297 43.9789C36.9898 43.707 37.2379 43.5285 37.4168 43.4228L42.504 52.0321L47.5913 60.6413C53.4275 57.1927 55.823 51.3705 55.823 45.545H45.823ZM42.504 52.0321L37.4168 43.4228C36.6413 43.881 36.0719 43.9933 35.5644 43.9933V53.9933V63.9933C39.8845 63.9933 43.9415 62.798 47.5913 60.6413L42.504 52.0321ZM35.5644 53.9933V43.9933C35.2618 43.9933 35.1409 43.9497 34.9222 43.7962L29.1779 51.9818L23.4336 60.1674C27.0367 62.6958 31.1735 63.9933 35.5644 63.9933V53.9933ZM29.1779 51.9818L34.9222 43.7962C34.5679 43.5476 34.0268 43.0403 33.4454 41.8775L24.5012 46.3496L15.5569 50.8217C17.3893 54.4865 19.966 57.7339 23.4336 60.1674L29.1779 51.9818ZM24.5012 46.3496L20.3106 37.27L17.6956 38.4769L21.8862 47.5565L26.0768 56.6361L28.6918 55.4292L24.5012 46.3496ZM21.8862 47.5565L12.8066 51.7471C14.5706 55.5689 17.1007 59.0403 20.631 61.6415L26.563 53.591L32.4949 45.5404C32.2033 45.3256 31.6157 44.7739 30.9658 43.3659L21.8862 47.5565ZM26.563 53.591L20.631 61.6415C23.776 63.9589 27.3312 65.4817 31.1032 66.3521L33.3517 56.6082L35.6003 46.8643C34.1424 46.5279 33.1717 46.0391 32.4949 45.5404L26.563 53.591ZM33.3517 56.6082H23.3517V61.4358H33.3517H43.3517V56.6082H33.3517ZM34.9609 70.2864V60.2864C31.4439 60.2864 28.2594 59.6227 25.3071 58.3441L21.3331 67.5206L17.359 76.697C22.922 79.1062 28.8228 80.2864 34.9609 80.2864V70.2864ZM21.3331 67.5206L25.3071 58.3441C22.1569 56.9799 19.515 55.181 17.2906 52.9567L10.2196 60.0278L3.14849 67.0988C7.22684 71.1772 11.9939 74.3735 17.359 76.697L21.3331 67.5206ZM10.2196 60.0278L17.2906 52.9567C15.0663 50.7324 13.2674 48.0904 11.9032 44.9402L2.72674 48.9143L-6.44969 52.8883C-4.12622 58.2534 -0.929859 63.0205 3.14849 67.0988L10.2196 60.0278ZM2.72674 48.9143L11.9032 44.9402C10.6246 41.9879 9.96094 38.8034 9.96094 35.2864H-0.0390625H-10.0391C-10.0391 41.4245 -8.85886 47.3253 -6.44969 52.8883L2.72674 48.9143ZM-0.0390625 35.2864H9.96094C9.96094 31.7693 10.6246 28.5849 11.9032 25.6326L2.72674 21.6585L-6.44969 17.6845C-8.85886 23.2474 -10.0391 29.1483 -10.0391 35.2864H-0.0390625ZM2.72674 21.6585L11.9032 25.6326C13.2674 22.4823 15.0663 19.8404 17.2906 17.6161L10.2196 10.545L3.14849 3.47393C-0.929859 7.55228 -4.12622 12.3194 -6.44969 17.6845L2.72674 21.6585ZM10.2196 10.545L17.2906 17.6161C19.515 15.3917 22.1569 13.5929 25.3071 12.2286L21.3331 3.05218L17.359 -6.12425C11.9939 -3.80079 7.22684 -0.604419 3.14849 3.47393L10.2196 10.545ZM21.3331 3.05218L25.3071 12.2286C28.2595 10.95 31.4439 10.2864 34.9609 10.2864V0.286377V-9.71362C28.8228 -9.71362 22.922 -8.53342 17.359 -6.12425L21.3331 3.05218ZM34.9609 0.286377V10.2864C38.478 10.2864 41.6624 10.95 44.6148 12.2286L48.5888 3.05218L52.5629 -6.12425C46.9999 -8.53342 41.099 -9.71362 34.9609 -9.71362V0.286377ZM48.5888 3.05218L44.6148 12.2286C47.765 13.5929 50.4069 15.3917 52.6313 17.6161L59.7023 10.545L66.7734 3.47393C62.695 -0.604419 57.928 -3.80079 52.5629 -6.12425L48.5888 3.05218ZM59.7023 10.545L52.6313 17.6161C54.8556 19.8404 56.6544 22.4823 58.0187 25.6326L67.1951 21.6585L76.3716 17.6845C74.0481 12.3194 70.8517 7.55228 66.7734 3.47393L59.7023 10.545ZM67.1951 21.6585L58.0187 25.6326C59.2973 28.5849 59.9609 31.7693 59.9609 35.2864H69.9609H79.9609C79.9609 29.1483 78.7807 23.2474 76.3716 17.6845L67.1951 21.6585ZM69.9609 35.2864H59.9609C59.9609 38.8035 59.2973 41.9879 58.0187 44.9402L67.1951 48.9143L76.3716 52.8883C78.7807 47.3253 79.9609 41.4245 79.9609 35.2864H69.9609ZM67.1951 48.9143L58.0187 44.9402C56.6544 48.0904 54.8556 50.7324 52.6313 52.9567L59.7023 60.0278L66.7734 67.0988C70.8517 63.0205 74.0481 58.2534 76.3716 52.8883L67.1951 48.9143ZM59.7023 60.0278L52.6313 52.9567C50.4069 55.181 47.765 56.9799 44.6148 58.3441L48.5888 67.5206L52.5629 76.697C57.928 74.3735 62.695 71.1772 66.7734 67.0988L59.7023 60.0278ZM48.5888 67.5206L44.6148 58.3441C41.6624 59.6227 38.478 60.2864 34.9609 60.2864V70.2864V80.2864C41.099 80.2864 46.9999 79.1062 52.5629 76.697L48.5888 67.5206ZM34.9609 67.4703V77.4703C46.5417 77.4703 56.7122 73.3382 64.8625 65.1879L57.7914 58.1168L50.7203 51.0458C46.3993 55.3668 41.3495 57.4703 34.9609 57.4703V67.4703ZM57.7914 58.1168L64.8625 65.1879C73.0127 57.0376 77.1449 46.8672 77.1449 35.2864H67.1449H57.1449C57.1449 41.6749 55.0413 46.7248 50.7203 51.0458L57.7914 58.1168ZM67.1449 35.2864H77.1449C77.1449 23.7056 73.0127 13.5351 64.8625 5.38485L57.7914 12.4559L50.7203 19.527C55.0413 23.848 57.1449 28.8978 57.1449 35.2864H67.1449ZM57.7914 12.4559L64.8625 5.38485C56.7122 -2.76541 46.5417 -6.89753 34.9609 -6.89753V3.10247V13.1025C41.3495 13.1025 46.3993 15.206 50.7203 19.527L57.7914 12.4559ZM34.9609 3.10247V-6.89753C23.3801 -6.89753 13.2097 -2.76541 5.05941 5.38485L12.1305 12.4559L19.2015 19.527C23.5226 15.206 28.5724 13.1025 34.9609 13.1025V3.10247ZM12.1305 12.4559L5.05941 5.38485C-3.09085 13.5351 -7.22297 23.7056 -7.22297 35.2864H2.77703H12.777C12.777 28.8978 14.8805 23.848 19.2015 19.527L12.1305 12.4559ZM2.77703 35.2864H-7.22297C-7.22297 46.8672 -3.09085 57.0376 5.05941 65.1879L12.1305 58.1168L19.2015 51.0458C14.8805 46.7248 12.777 41.6749 12.777 35.2864H2.77703ZM12.1305 58.1168L5.05941 65.1879C13.2097 73.3382 23.3801 77.4703 34.9609 77.4703V67.4703V57.4703C28.5724 57.4703 23.5226 55.3668 19.2015 51.0458L12.1305 58.1168Z" fill="#585858" mask="url(#path-2-inside-1_1_672)"/>
</g>
</g>
<defs>
<filter id="filter0_d_1_672" x="-4.03906" y="0.286377" width="78" height="78" filterUnits="userSpaceOnUse" color-interpolation-filters="sRGB">
<feFlood flood-opacity="0" result="BackgroundImageFix"/>
<feColorMatrix in="SourceAlpha" type="matrix" values="0 0 0 0 0 0 0 0 0 0 0 0 0 0 0 0 0 0 127 0" result="hardAlpha"/>
<feOffset dy="4"/>
<feGaussianBlur stdDeviation="2"/>
<feComposite in2="hardAlpha" operator="out"/>
<feColorMatrix type="matrix" values="0 0 0 0 0 0 0 0 0 0 0 0 0 0 0 0 0 0 0.25 0"/>
<feBlend mode="normal" in2="BackgroundImageFix" result="effect1_dropShadow_1_672"/>
<feBlend mode="normal" in="SourceGraphic" in2="effect1_dropShadow_1_672" result="shape"/>
</filter>
</defs>
</svg>
